<svg width="46" height="67" viewBox="0 0 46 67" fill="none" xmlns="http://www.w3.org/2000/svg">
<path d="M38.91 31.438V42.307C38.91 42.307 39.015 45.042 36.085 45.042C33.016 45.042 32.96 42.307 32.96 42.307V35.891C32.96 35.651 32.624 33.982 30.641 33.982C28.016 33.982 27.971 35.859 27.971 35.859V55.08C27.971 55.08 28 56.943 25.507 56.943C23 56.943 23 54.96 23 54.96V41.016C23 41.016 23 38.071 19.195 38.071C15.141 38.071 15.228 41.196 15.228 41.196V44.924C15.228 44.924 15.107 47.869 10.54 47.869C5.973 47.869 5.912 43.36 5.912 43.36V30.938C4.168 29.976 1 27.671 1 27.671V57.003C1 57.003 3.988 66 23 66C42.012 66 45 57.305 45 57.305V27.671C42.062 30.5 38.91 31.438 38.91 31.438Z" fill="white" stroke="black"/>
<path fill-rule="evenodd" clip-rule="evenodd" d="M23 1C2.688 1 1 20.875 1 20.875V23.937C9.438 30.188 23 30 23 30C23 30 36.562 30.188 45 23.938V20.876C45 20.875 43.312 1 23 1ZM23 26C11.25 26 8.688 23.625 8.688 23.625C14.938 20.75 23 20.875 23 20.875C23 20.875 31.062 20.75 37.312 23.625C37.312 23.625 34.75 26 23 26ZM5.312 16.563C5.312 16.563 13.438 13.625 23 13.625C32.562 13.625 40.688 16.562 40.688 16.562C36.125 3.624 23 4.062 23 4.062C23 4.062 9.875 3.625 5.312 16.563Z" fill="white"/>
<path d="M1 20.875L0.501794 20.8327L0.5 20.8538V20.875H1ZM1 23.937H0.5V24.1888L0.702367 24.3388L1 23.937ZM23 30L23.0069 29.4999L22.9931 29.5L23 30ZM45 23.938L45.2976 24.3398L45.5 24.1899V23.938H45ZM8.688 23.625L8.47905 23.1708L7.79965 23.4833L8.34808 23.9917L8.688 23.625ZM23 20.875L22.9922 21.3749L23 21.3751L23.0078 21.3749L23 20.875ZM37.312 23.625L37.6519 23.9917L38.2004 23.4833L37.521 23.1708L37.312 23.625ZM5.312 16.563L4.84047 16.3967L4.48941 17.3921L5.48201 17.0332L5.312 16.563ZM40.688 16.562L40.518 17.0322L41.5105 17.3909L41.1595 16.3957L40.688 16.562ZM23 4.062L22.9834 4.56172L23 4.56228L23.0167 4.56172L23 4.062ZM1 20.875C1.49821 20.9173 1.49819 20.9175 1.49818 20.9176C1.49819 20.9175 1.49819 20.9175 1.4982 20.9174C1.49822 20.9171 1.49827 20.9166 1.49835 20.9157C1.49851 20.9139 1.49877 20.911 1.49915 20.9069C1.49991 20.8987 1.50115 20.8858 1.50291 20.8684C1.50644 20.8336 1.5121 20.7807 1.52041 20.7109C1.53703 20.5712 1.56422 20.364 1.60608 20.099C1.68982 19.5688 1.83213 18.8078 2.06559 17.8932C2.533 16.0621 3.36315 13.6256 4.81252 11.1935C7.69829 6.35094 13.0475 1.5 23 1.5V0.5C12.6405 0.5 6.98971 5.58656 3.95348 10.6815C2.44185 13.2182 1.5805 15.7504 1.09666 17.6459C0.854499 18.5945 0.70624 19.3863 0.618324 19.943C0.574355 20.2214 0.545445 20.4412 0.527419 20.5927C0.518405 20.6685 0.51211 20.7271 0.508014 20.7675C0.505965 20.7877 0.504466 20.8034 0.503451 20.8143C0.502944 20.8197 0.502557 20.824 0.502284 20.8271C0.502147 20.8286 0.502038 20.8299 0.501957 20.8308C0.501916 20.8313 0.501875 20.8317 0.501855 20.832C0.501821 20.8324 0.501794 20.8327 1 20.875ZM1.5 23.937V20.875H0.5V23.937H1.5ZM23 30C22.9931 29.5 22.9931 29.5 22.9931 29.5C22.9931 29.5 22.993 29.5 22.9929 29.5C22.9927 29.5001 22.9922 29.5001 22.9915 29.5001C22.9902 29.5001 22.988 29.5001 22.9851 29.5001C22.9791 29.5002 22.97 29.5003 22.9577 29.5004C22.933 29.5005 22.8957 29.5007 22.8464 29.5006C22.7476 29.5004 22.6006 29.4994 22.4099 29.496C22.0284 29.489 21.4722 29.4721 20.7776 29.4325C19.3879 29.3532 17.4471 29.183 15.2457 28.8193C10.8301 28.0898 5.42247 26.591 1.29763 23.5352L0.702367 24.3388C5.01553 27.534 10.6079 29.0667 15.0828 29.8059C17.3266 30.1766 19.3037 30.3501 20.7206 30.4309C21.4293 30.4713 21.9985 30.4886 22.3917 30.4958C22.5882 30.4994 22.7408 30.5004 22.8449 30.5006C22.8969 30.5007 22.9368 30.5005 22.964 30.5003C22.9776 30.5003 22.988 30.5002 22.9952 30.5001C22.9988 30.5 23.0016 30.5 23.0035 30.5C23.0045 30.5 23.0053 30.5 23.0059 30.5C23.0061 30.5 23.0064 30.5 23.0065 30.5C23.0068 30.5 23.0069 30.5 23 30ZM44.7024 23.5362C40.5776 26.5915 35.1699 28.0901 30.7543 28.8194C28.5529 29.1831 26.6121 29.3533 25.2224 29.4325C24.5279 29.4721 23.9716 29.489 23.5901 29.496C23.3994 29.4994 23.2524 29.5004 23.1536 29.5006C23.1043 29.5007 23.067 29.5005 23.0423 29.5004C23.03 29.5003 23.0209 29.5002 23.0149 29.5001C23.012 29.5001 23.0098 29.5001 23.0085 29.5001C23.0078 29.5001 23.0073 29.5001 23.0071 29.5C23.007 29.5 23.0069 29.5 23.0069 29.5C23.0069 29.5 23.0069 29.5 23 30C22.9931 30.5 22.9932 30.5 22.9935 30.5C22.9936 30.5 22.9939 30.5 22.9941 30.5C22.9947 30.5 22.9955 30.5 22.9965 30.5C22.9984 30.5 23.0012 30.5 23.0048 30.5001C23.012 30.5002 23.0224 30.5003 23.036 30.5003C23.0632 30.5005 23.1031 30.5007 23.1551 30.5006C23.2592 30.5004 23.4118 30.4994 23.6083 30.4958C24.0015 30.4886 24.5707 30.4713 25.2794 30.4309C26.6963 30.3501 28.6734 30.1767 30.9172 29.8061C35.3921 29.0669 40.9844 27.5345 45.2976 24.3398L44.7024 23.5362ZM44.5 20.876V23.938H45.5V20.876H44.5ZM23 1.5C32.9525 1.5 38.3017 6.35094 41.1875 11.1936C42.6368 13.6258 43.467 16.0624 43.9344 17.8936C44.1679 18.8083 44.3102 19.5693 44.3939 20.0997C44.4358 20.3647 44.463 20.572 44.4796 20.7117C44.4879 20.7815 44.4936 20.8345 44.4971 20.8693C44.4989 20.8867 44.5001 20.8996 44.5008 20.9078C44.5012 20.9119 44.5015 20.9148 44.5016 20.9165C44.5017 20.9174 44.5018 20.9179 44.5018 20.9181C44.5018 20.9182 44.5018 20.9181 44.5018 20.918C44.5017 20.9177 44.5004 20.8966 44.5 20.876H45.5C45.4996 20.8554 45.4982 20.8342 45.4982 20.8335C45.4982 20.8332 45.4981 20.8326 45.4981 20.8321C45.498 20.831 45.4979 20.8298 45.4977 20.8282C45.4975 20.8251 45.4971 20.8208 45.4966 20.8153C45.4955 20.8044 45.494 20.7887 45.492 20.7685C45.4879 20.7281 45.4816 20.6693 45.4726 20.5936C45.4546 20.442 45.4256 20.2221 45.3817 19.9437C45.2938 19.3869 45.1455 18.595 44.9033 17.6463C44.4195 15.7507 43.5582 13.2184 42.0465 10.6817C39.0103 5.58656 33.3596 0.5 23 0.5V1.5ZM8.688 23.625C8.34808 23.9917 8.3485 23.9921 8.34893 23.9925C8.34909 23.9926 8.34953 23.993 8.34984 23.9933C8.35046 23.9939 8.35113 23.9945 8.35184 23.9951C8.35325 23.9964 8.35482 23.9978 8.35656 23.9994C8.36004 24.0025 8.36418 24.0062 8.369 24.0103C8.37865 24.0186 8.39102 24.029 8.40632 24.0413C8.43693 24.0659 8.47923 24.0982 8.53478 24.137C8.64589 24.2146 8.8099 24.3182 9.03935 24.4387C9.4981 24.6798 10.2187 24.9888 11.3023 25.2938C13.4677 25.9034 17.0937 26.5 23 26.5V25.5C17.1563 25.5 13.6263 24.9091 11.5732 24.3312C10.5475 24.0425 9.89327 23.7577 9.50446 23.5535C9.31013 23.4514 9.18219 23.3694 9.10729 23.3171C9.06984 23.2909 9.04562 23.2722 9.03296 23.262C9.02663 23.2569 9.02318 23.254 9.02242 23.2533C9.02203 23.253 9.02231 23.2532 9.02324 23.254C9.0237 23.2545 9.02433 23.255 9.02511 23.2557C9.0255 23.2561 9.02593 23.2565 9.0264 23.2569C9.02663 23.2571 9.02701 23.2575 9.02713 23.2576C9.02752 23.2579 9.02792 23.2583 8.688 23.625ZM23 20.875C23.0078 20.3751 23.0076 20.3751 23.0075 20.3751C23.0074 20.3751 23.0072 20.3751 23.007 20.375C23.0067 20.375 23.0062 20.375 23.0056 20.375C23.0043 20.375 23.0026 20.375 23.0004 20.375C22.996 20.3749 22.9897 20.3748 22.9815 20.3748C22.9651 20.3746 22.941 20.3744 22.9097 20.3743C22.847 20.3741 22.7552 20.3741 22.6367 20.3753C22.3995 20.3775 22.0553 20.384 21.6232 20.4008C20.7594 20.4344 19.5431 20.5094 18.1295 20.6753C15.3093 21.0061 11.6724 21.7018 8.47905 23.1708L8.89695 24.0792C11.9536 22.6732 15.4727 21.9939 18.246 21.6685C19.6291 21.5062 20.819 21.4328 21.6621 21.4C22.0835 21.3836 22.4179 21.3774 22.6461 21.3752C22.7602 21.3741 22.8477 21.3741 22.9062 21.3743C22.9354 21.3744 22.9574 21.3746 22.9719 21.3747C22.9791 21.3748 22.9844 21.3748 22.9878 21.3749C22.9895 21.3749 22.9908 21.3749 22.9915 21.3749C22.9919 21.3749 22.9921 21.3749 22.9922 21.3749C22.9923 21.3749 22.9923 21.3749 22.9923 21.3749C22.9923 21.3749 22.9922 21.3749 23 20.875ZM37.521 23.1708C34.3276 21.7018 30.6907 21.0061 27.8705 20.6753C26.4569 20.5094 25.2406 20.4344 24.3768 20.4008C23.9447 20.384 23.6005 20.3775 23.3633 20.3753C23.2448 20.3741 23.153 20.3741 23.0903 20.3743C23.059 20.3744 23.0349 20.3746 23.0185 20.3748C23.0103 20.3748 23.004 20.3749 22.9996 20.375C22.9974 20.375 22.9957 20.375 22.9944 20.375C22.9938 20.375 22.9933 20.375 22.993 20.375C22.9928 20.3751 22.9926 20.3751 22.9925 20.3751C22.9924 20.3751 22.9922 20.3751 23 20.875C23.0078 21.3749 23.0077 21.3749 23.0077 21.3749C23.0077 21.3749 23.0077 21.3749 23.0078 21.3749C23.0079 21.3749 23.0081 21.3749 23.0085 21.3749C23.0092 21.3749 23.0105 21.3749 23.0122 21.3749C23.0156 21.3748 23.0209 21.3748 23.0281 21.3747C23.0426 21.3746 23.0646 21.3744 23.0938 21.3743C23.1523 21.3741 23.2398 21.3741 23.3539 21.3752C23.5821 21.3774 23.9165 21.3836 24.3379 21.4C25.181 21.4328 26.3709 21.5062 27.754 21.6685C30.5273 21.9939 34.0464 22.6732 37.103 24.0792L37.521 23.1708ZM23 26.5C28.9063 26.5 32.5323 25.9034 34.6977 25.2938C35.7813 24.9888 36.5019 24.6798 36.9607 24.4387C37.1901 24.3182 37.3541 24.2146 37.4652 24.137C37.5208 24.0982 37.5631 24.0659 37.5937 24.0413C37.609 24.029 37.6214 24.0186 37.631 24.0103C37.6358 24.0062 37.64 24.0025 37.6434 23.9994C37.6452 23.9978 37.6468 23.9964 37.6482 23.9951C37.6489 23.9945 37.6495 23.9939 37.6502 23.9933C37.6505 23.993 37.6509 23.9926 37.6511 23.9925C37.6515 23.9921 37.6519 23.9917 37.312 23.625C36.9721 23.2583 36.9725 23.2579 36.9729 23.2576C36.973 23.2575 36.9734 23.2571 36.9736 23.2569C36.9741 23.2565 36.9745 23.2561 36.9749 23.2557C36.9757 23.255 36.9763 23.2545 36.9768 23.254C36.9777 23.2532 36.978 23.253 36.9776 23.2533C36.9768 23.254 36.9734 23.2569 36.967 23.262C36.9544 23.2722 36.9302 23.2909 36.8927 23.3171C36.8178 23.3694 36.6899 23.4514 36.4955 23.5535C36.1067 23.7577 35.4525 24.0425 34.4268 24.3312C32.3737 24.9091 28.8437 25.5 23 25.5V26.5ZM23 13.125C18.1705 13.125 13.7096 13.8666 10.4593 14.6065C8.83303 14.9766 7.50715 15.347 6.58642 15.6253C6.126 15.7645 5.76671 15.8807 5.52165 15.9624C5.39911 16.0033 5.30511 16.0356 5.2413 16.0578C5.20939 16.0689 5.18502 16.0775 5.1684 16.0834C5.1601 16.0863 5.15372 16.0886 5.14931 16.0902C5.14711 16.0909 5.14539 16.0916 5.14417 16.092C5.14356 16.0922 5.14307 16.0924 5.14271 16.0925C5.14253 16.0926 5.14235 16.0927 5.14226 16.0927C5.14211 16.0927 5.14199 16.0928 5.312 16.563C5.48201 17.0332 5.48195 17.0332 5.48193 17.0332C5.48196 17.0332 5.48197 17.0332 5.48203 17.0332C5.48216 17.0332 5.48242 17.0331 5.4828 17.0329C5.48355 17.0327 5.4848 17.0322 5.48654 17.0316C5.49001 17.0303 5.49544 17.0284 5.5028 17.0258C5.51752 17.0206 5.53995 17.0127 5.56989 17.0022C5.62977 16.9814 5.7197 16.9505 5.83803 16.9111C6.07471 16.8321 6.42497 16.7188 6.87577 16.5826C7.77747 16.31 9.08072 15.9459 10.6812 15.5815C13.8844 14.8524 18.2675 14.125 23 14.125V13.125ZM40.688 16.562C40.858 16.0918 40.8578 16.0917 40.8577 16.0917C40.8576 16.0916 40.8574 16.0916 40.8572 16.0915C40.8569 16.0914 40.8564 16.0912 40.8558 16.091C40.8546 16.0905 40.8528 16.0899 40.8506 16.0891C40.8462 16.0876 40.8399 16.0853 40.8315 16.0823C40.8149 16.0764 40.7906 16.0679 40.7587 16.0568C40.6948 16.0346 40.6008 16.0023 40.4783 15.9615C40.2332 15.8798 39.874 15.7636 39.4135 15.6245C38.4928 15.3463 37.1669 14.976 35.5407 14.606C32.2903 13.8663 27.8295 13.125 23 13.125V14.125C27.7325 14.125 32.1157 14.8522 35.3188 15.581C36.9193 15.9452 38.2226 16.3092 39.1243 16.5817C39.5751 16.7179 39.9253 16.8312 40.162 16.9101C40.2803 16.9496 40.3703 16.9804 40.4302 17.0013C40.4601 17.0117 40.4825 17.0196 40.4972 17.0248C40.5046 17.0274 40.51 17.0294 40.5135 17.0306C40.5152 17.0312 40.5165 17.0317 40.5173 17.0319C40.5176 17.0321 40.5179 17.0322 40.518 17.0322C40.5181 17.0322 40.5181 17.0322 40.5181 17.0323C40.5181 17.0322 40.518 17.0322 40.688 16.562ZM23 4.062C23.0167 4.56172 23.0165 4.56173 23.0163 4.56173C23.0164 4.56173 23.0163 4.56174 23.0163 4.56173C23.0164 4.56173 23.0166 4.56172 23.0171 4.56171C23.018 4.56168 23.0198 4.56163 23.0223 4.56157C23.0273 4.56144 23.0354 4.56126 23.0465 4.56106C23.0687 4.56068 23.103 4.56026 23.1488 4.56024C23.2402 4.56019 23.3774 4.56171 23.5548 4.56812C23.9098 4.58095 24.4258 4.61337 25.0607 4.69193C26.3315 4.8492 28.0724 5.19061 29.9506 5.92585C33.6974 7.39256 37.9932 10.4245 40.2165 16.7283L41.1595 16.3957C38.8198 9.76148 34.2716 6.54344 30.3151 4.99465C28.3417 4.22214 26.5162 3.86442 25.1835 3.6995C24.5166 3.61698 23.9715 3.58253 23.5909 3.56878C23.4006 3.5619 23.2513 3.56019 23.1483 3.56024C23.0968 3.56027 23.0568 3.56073 23.0291 3.56121C23.0152 3.56145 23.0045 3.5617 22.9968 3.56189C22.993 3.56199 22.9899 3.56208 22.9877 3.56214C22.9865 3.56218 22.9856 3.5622 22.9849 3.56223C22.9845 3.56224 22.9841 3.56225 22.984 3.56226C22.9836 3.56227 22.9833 3.56228 23 4.062ZM5.78353 16.7293C8.00677 10.4255 12.3026 7.3933 16.0494 5.92634C17.9276 5.19097 19.6685 4.84945 20.9394 4.69209C21.5742 4.61347 22.0902 4.58102 22.4452 4.56816C22.6227 4.56174 22.7598 4.56021 22.8513 4.56025C22.897 4.56027 22.9313 4.56068 22.9536 4.56107C22.9647 4.56126 22.9728 4.56144 22.9778 4.56157C22.9803 4.56163 22.982 4.56168 22.9829 4.56171C22.9834 4.56172 22.9837 4.56173 22.9837 4.56174C22.9838 4.56174 22.9837 4.56173 22.9837 4.56173C22.9836 4.56173 22.9834 4.56172 23 4.062C23.0166 3.56228 23.0163 3.56227 23.016 3.56226C23.0158 3.56225 23.0154 3.56224 23.0151 3.56223C23.0143 3.5622 23.0134 3.56218 23.0123 3.56214C23.01 3.56208 23.007 3.56199 23.0032 3.56189C22.9955 3.5617 22.9847 3.56146 22.9709 3.56122C22.9432 3.56074 22.9032 3.56027 22.8517 3.56025C22.7487 3.56021 22.5994 3.56193 22.409 3.56882C22.0285 3.5826 21.4834 3.61709 20.8165 3.69966C19.4838 3.86468 17.6582 4.22253 15.6848 4.99516C11.7284 6.5442 7.18023 9.76249 4.84047 16.3967L5.78353 16.7293Z" fill="black"/>
</svg>
