<svg width="26" height="16" viewBox="0 0 26 16" fill="none" xmlns="http://www.w3.org/2000/svg">
<path d="M15.5403 11.9887C16.4609 11.7067 17.6396 13.8502 18.8943 14.6705C19.8361 15.2919 20.5573 15.1578 20.5573 15.1578L23.9017 15.1122C23.9017 15.1122 25.6495 15.01 24.8233 13.6941C24.7549 13.5846 24.3389 12.7187 22.334 10.9366C20.2376 9.07233 20.5217 9.37437 23.0456 6.15142C24.5835 4.18681 25.1988 2.98687 25.0062 2.47587C24.8213 1.98403 23.6918 2.11178 23.6918 2.11178L19.9237 2.13642C19.5568 2.13733 19.2458 2.24501 19.1042 2.60636C19.1013 2.61001 18.5062 4.12658 17.7127 5.41595C16.0362 8.14341 15.367 8.28849 15.0896 8.11786C14.4531 7.72274 14.6139 6.53284 14.6139 5.68696C14.6139 3.04345 15.0299 1.94115 13.7993 1.65645C13.3881 1.56155 13.0876 1.4995 12.039 1.49037C10.6985 1.47121 9.5603 1.49037 8.91511 1.79058C8.48659 1.99407 8.15822 2.44028 8.35756 2.46583C8.60793 2.49777 9.16934 2.61183 9.46978 3.00056C9.85593 3.50426 9.84437 4.63302 9.84437 4.63302C9.84437 4.63302 10.0649 7.74556 9.32437 8.13154C8.81593 8.39617 8.12067 7.85597 6.62519 5.37945C5.86156 4.1129 5.28474 2.71312 5.28474 2.71312C5.28474 2.71312 5.17304 2.45306 4.97082 2.31071C4.73008 2.1419 4.39304 2.08806 4.39304 2.08806L0.816594 2.10996C0.816594 2.10996 0.279261 2.12456 0.0818532 2.34903C-0.0934061 2.54796 0.0674088 2.95858 0.0674088 2.95858C0.0674088 2.95858 2.86867 9.23749 6.04067 12.4002C8.94882 15.3038 12.2537 15.1113 12.2537 15.1113H13.7511C13.7511 15.1113 14.2027 15.062 14.4339 14.8266C14.6496 14.6076 14.6399 14.196 14.6399 14.196C14.6399 14.196 14.6101 12.2716 15.5403 11.9887Z" fill="white"/>
</svg>
