<svg width="21" height="22" viewBox="0 0 21 22" fill="none" xmlns="http://www.w3.org/2000/svg">
<path fill-rule="evenodd" clip-rule="evenodd" d="M3 0.65332H18C19.65 0.65332 21 1.96732 21 3.57332V18.1733C21 19.7793 19.65 21.0933 18 21.0933H3C1.35 21.0933 0 19.7793 0 18.1733V3.57332C0 1.96732 1.35 0.65332 3 0.65332ZM14 10.8733C14 8.99478 12.43 7.46665 10.5 7.46665C8.57 7.46665 7 8.99478 7 10.8733C7 12.7518 8.57 14.28 10.5 14.28C12.43 14.28 14 12.7518 14 10.8733ZM3 18.1733V9.41332H4.181C4.0626 9.89149 4.00186 10.3815 4 10.8733C4 14.3674 6.91015 17.2 10.5 17.2C14.0899 17.2 17 14.3674 17 10.8733C16.9986 10.3814 16.9379 9.8914 16.819 9.41332H18V18.1733H3ZM14 7.46665H18V3.57332H14V7.46665Z" fill="white"/>
</svg>
